<svg xmlns="http://www.w3.org/2000/svg" viewBox="0 0 400 500" role="img" aria-label="Illustration"><defs><linearGradient id="a" x1="0" y1="0" x2="0" y2="1"><stop offset="0" stop-color="#2a1a26"/><stop offset="1" stop-color="#812743"/></linearGradient><radialGradient id="ah" cx=".5" cy=".62" r=".5"><stop offset="0" stop-color="#ffd9a0" stop-opacity=".5"/><stop offset="1" stop-color="#ffd9a0" stop-opacity="0"/></radialGradient></defs><rect width="400" height="500" fill="url(#a)"/><rect width="400" height="500" fill="url(#ah)"/><circle cx="68" cy="291" r="1.2" fill="#fff" opacity="0.5"/><circle cx="60" cy="253" r="3" fill="#fff" opacity="0.5"/><circle cx="333" cy="194" r="1.6" fill="#fff" opacity="0.35"/><circle cx="249" cy="14" r="3" fill="#fff" opacity="0.5"/><circle cx="311" cy="1" r="3" fill="#fff" opacity="0.5"/><circle cx="369" cy="117" r="1.2" fill="#fff" opacity="0.5"/><circle cx="15" cy="11" r="1.2" fill="#fff" opacity="0.7"/><circle cx="277" cy="4" r="3" fill="#fff" opacity="0.7"/><circle cx="110" cy="216" r="1.2" fill="#fff" opacity="0.7"/><circle cx="113" cy="224" r="3" fill="#fff" opacity="0.7"/><circle cx="119" cy="176" r="1.6" fill="#fff" opacity="0.7"/><circle cx="112" cy="235" r="2.2" fill="#fff" opacity="0.35"/><circle cx="213" cy="284" r="1.2" fill="#fff" opacity="0.35"/><circle cx="322" cy="370" r="2.2" fill="#fff" opacity="0.35"/><circle cx="380" cy="170" r="3" fill="#fff" opacity="0.7"/><circle cx="343" cy="97" r="2.2" fill="#fff" opacity="0.5"/><circle cx="300" cy="255" r="3" fill="#fff" opacity="0.7"/><circle cx="17" cy="245" r="1.6" fill="#fff" opacity="0.7"/><circle cx="206" cy="212" r="1.6" fill="#fff" opacity="0.5"/><circle cx="280" cy="359" r="2.2" fill="#fff" opacity="0.35"/><circle cx="224" cy="339" r="1.2" fill="#fff" opacity="0.35"/><circle cx="266" cy="201" r="2.2" fill="#fff" opacity="0.5"/><circle cx="375" cy="15" r="3" fill="#fff" opacity="0.35"/><circle cx="157" cy="360" r="3" fill="#fff" opacity="0.7"/><circle cx="87" cy="86" r="1.6" fill="#fff" opacity="0.35"/><circle cx="394" cy="102" r="1.6" fill="#fff" opacity="0.5"/><circle cx="263" cy="176" r="2.2" fill="#fff" opacity="0.5"/><circle cx="137" cy="337" r="1.2" fill="#fff" opacity="0.5"/><circle cx="379" cy="262" r="1.6" fill="#fff" opacity="0.7"/><circle cx="398" cy="287" r="1.6" fill="#fff" opacity="0.5"/><circle cx="28" cy="246" r="2.2" fill="#fff" opacity="0.7"/><circle cx="283" cy="102" r="3" fill="#fff" opacity="0.5"/><circle cx="182" cy="212" r="2.2" fill="#fff" opacity="0.35"/><circle cx="275" cy="276" r="2.2" fill="#fff" opacity="0.5"/><circle cx="307" cy="14" r="1.6" fill="#fff" opacity="0.7"/><circle cx="90" cy="281" r="1.6" fill="#fff" opacity="0.35"/><circle cx="282" cy="130" r="1.2" fill="#fff" opacity="0.7"/><circle cx="36" cy="42" r="1.2" fill="#fff" opacity="0.5"/><circle cx="7" cy="143" r="1.6" fill="#fff" opacity="0.5"/><circle cx="56" cy="319" r="1.6" fill="#fff" opacity="0.5"/><circle cx="148" cy="35" r="1.6" fill="#fff" opacity="0.35"/><circle cx="130" cy="270" r="1.6" fill="#fff" opacity="0.7"/><circle cx="139" cy="331" r="2.2" fill="#fff" opacity="0.5"/><circle cx="359" cy="164" r="3" fill="#fff" opacity="0.5"/><circle cx="58" cy="12" r="2.2" fill="#fff" opacity="0.5"/><circle cx="175" cy="215" r="1.6" fill="#fff" opacity="0.5"/><g transform="translate(70 372) scale(1.1)"><path d="M0 -70 L22 -30 H10 L30 5 H-30 L-10 -30 H-22Z" fill="#2f4a3c"/><path d="M0 -70 L10 -50 H-10Z" fill="#fff" opacity=".85"/><rect x="-4" y="5" width="8" height="12" fill="#3a2418"/></g><g transform="translate(335 380) scale(0.9)"><path d="M0 -70 L22 -30 H10 L30 5 H-30 L-10 -30 H-22Z" fill="#2f4a3c"/><path d="M0 -70 L10 -50 H-10Z" fill="#fff" opacity=".85"/><rect x="-4" y="5" width="8" height="12" fill="#3a2418"/></g><path d="M0 390 Q100 372 200 384 T400 378 V500 H0Z" fill="#f1ece6"/><path d="M0 420 Q120 406 240 416 T400 410 V500 H0Z" fill="#fff" opacity=".7"/><g transform="translate(200 262)"><rect x="-95.0" y="0" width="190" height="120" fill="#4a2a1e"/><path d="M-109.0 4 L0 -52 L109.0 4Z" fill="#1f3d6e"/><path d="M-109.0 4 L0 -52 L109.0 4 L103.0 12 L-103.0 12Z" fill="#fff" opacity=".0"/><path d="M-109.0 0 Q0 -26 109.0 0 V8 H-109.0Z" fill="#fff" opacity=".9"/><rect x="-81.0" y="26" width="162" height="68" rx="4" fill="#ffd9a0"/><rect x="-81.0" y="26" width="162" height="68" rx="4" fill="#fff" opacity=".18"/><rect x="-87.0" y="90" width="174" height="12" fill="#2e1a12"/><g transform="translate(-30 76)"><rect x="-7" y="0" width="14" height="14" rx="3" fill="#812743"/><path d="M7 3h4q4 4 0 8h-4" fill="none" stroke="#812743" stroke-width="2.5"/></g><g transform="translate(0 76)"><rect x="-7" y="0" width="14" height="14" rx="3" fill="#812743"/><path d="M7 3h4q4 4 0 8h-4" fill="none" stroke="#812743" stroke-width="2.5"/></g><g transform="translate(30 76)"><rect x="-7" y="0" width="14" height="14" rx="3" fill="#812743"/><path d="M7 3h4q4 4 0 8h-4" fill="none" stroke="#812743" stroke-width="2.5"/></g></g><path d="M0 100 L50 102 L100 103 L150 102 L200 99 L250 94 L300 88 L350 80 L400 70" fill="none" stroke="#1a0f17" stroke-width="1.5" opacity=".6"/><circle cx="0" cy="104" r="9" fill="#ffd9a0" opacity=".22"/><circle cx="0" cy="104" r="3.2" fill="#ffd9a0"/><circle cx="50" cy="106" r="9" fill="#ff9d8a" opacity=".22"/><circle cx="50" cy="106" r="3.2" fill="#ff9d8a"/><circle cx="100" cy="107" r="9" fill="#fff4d6" opacity=".22"/><circle cx="100" cy="107" r="3.2" fill="#fff4d6"/><circle cx="150" cy="106" r="9" fill="#ffd9a0" opacity=".22"/><circle cx="150" cy="106" r="3.2" fill="#ffd9a0"/><circle cx="200" cy="103" r="9" fill="#ff9d8a" opacity=".22"/><circle cx="200" cy="103" r="3.2" fill="#ff9d8a"/><circle cx="250" cy="98" r="9" fill="#fff4d6" opacity=".22"/><circle cx="250" cy="98" r="3.2" fill="#fff4d6"/><circle cx="300" cy="92" r="9" fill="#ffd9a0" opacity=".22"/><circle cx="300" cy="92" r="3.2" fill="#ffd9a0"/><circle cx="350" cy="84" r="9" fill="#ff9d8a" opacity=".22"/><circle cx="350" cy="84" r="3.2" fill="#ff9d8a"/><circle cx="400" cy="74" r="9" fill="#fff4d6" opacity=".22"/><circle cx="400" cy="74" r="3.2" fill="#fff4d6"/><g transform="translate(200 440) scale(0.0)"><ellipse cx="0" cy="62" rx="58" ry="9" fill="#000" opacity=".25"/><path d="M-46 -40 H46 V30 Q46 62 0 62 T-46 30Z" fill="#812743"/><path d="M-46 -40 H46 V-18 H-46Z" fill="#a3324e"/><ellipse cx="0" cy="-40" rx="46" ry="9" fill="#3a1020"/><ellipse cx="0" cy="-40" rx="38" ry="6" fill="#5a1730"/><circle cx="12" cy="-41" r="8" fill="#ec9c45"/><path d="M46 -22 h16 q22 12 0 36 h-16" fill="none" stroke="#812743" stroke-width="9" stroke-linecap="round"/><path d="M-14 -58 q-10 -16 0 -30 M12 -58 q-10 -16 0 -30" fill="none" stroke="#fff" stroke-width="3" stroke-linecap="round" opacity=".5"/><text x="0" y="22" text-anchor="middle" font-family="sans-serif" font-size="26" font-weight="800" fill="#f7f8f3">26</text></g></svg>